<?xml version="1.0" encoding="utf-8" ?>
<svg baseProfile="tiny" height="2250" version="1.2" width="530" xmlns="http://www.w3.org/2000/svg" xmlns:ev="http://www.w3.org/2001/xml-events" xmlns:xlink="http://www.w3.org/1999/xlink"><defs /><rect fill="white" height="12" opacity="0.3" rx="1" ry="1" stroke="black" width="45" x="0" y="15" /><text fill="black" font-family="Montserrat" font-size="12" x="1" y="27">Name</text><rect fill="red" height="12" opacity="0.8" rx="1" ry="1" stroke="red" width="45" x="48" y="15" /><text fill="black" font-family="Montserrat" font-size="12" x="49" y="27">Power</text><rect fill="black" height="12" opacity="0.9" rx="1" ry="1" stroke="black" width="45" x="96" y="15" /><text fill="white" font-family="Montserrat" font-size="12" x="97" y="27">GND</text><rect fill="yellow" height="12" opacity="0.7" rx="1" ry="1" stroke="yellow" width="45" x="144" y="15" /><text fill="black" font-family="Montserrat" font-size="12" x="145" y="27">GPIO</text><rect fill="green" height="12" opacity="0.3" rx="1" ry="1" stroke="green" width="45" x="192" y="15" /><text fill="black" font-family="Montserrat" font-size="12" x="193" y="27">ADC</text><rect fill="blue" height="12" opacity="0.4" rx="1" ry="1" stroke="blue" width="45" x="240" y="15" /><text fill="black" font-family="Montserrat" font-size="12" x="241" y="27">Serial</text><rect fill="purple" height="12" opacity="0.4" rx="1" ry="1" stroke="purple" width="45" x="288" y="15" /><text fill="black" font-family="Montserrat" font-size="12" x="289" y="27">Touch</text><rect fill="yellow" height="12" opacity="0.3" rx="1" ry="1" stroke="yellow" width="45" x="336" y="15" /><text fill="black" font-family="Montserrat" font-size="12" x="337" y="27">SDIO</text><rect fill="grey" height="12" opacity="0.3" rx="1" ry="1" stroke="grey" width="45" x="384" y="15" /><text fill="black" font-family="Montserrat" font-size="12" x="385" y="27">JTAG</text><rect fill="purple" height="12" opacity="0.2" rx="1" ry="1" stroke="purple" width="45" x="432" y="15" /><text fill="black" font-family="Montserrat" font-size="12" x="433" y="27">Misc
</text><rect fill="purple" height="12" opacity="0.2" rx="1" ry="1" stroke="purple" width="45" x="482" y="30" /><text fill="black" font-family="Montserrat" font-size="12" x="483" y="42">
</text><rect fill="white" height="12" opacity="0.3" rx="1" ry="1" stroke="black" width="45" x="482" y="45" /><text fill="black" font-family="Montserrat" font-size="12" x="483" y="57">GND</text><rect fill="black" height="12" opacity="0.9" rx="1" ry="1" stroke="black" width="45" x="434" y="45" /><text fill="white" font-family="Montserrat" font-size="12" x="435" y="57">GND</text><rect fill="purple" height="12" opacity="0.2" rx="1" ry="1" stroke="purple" width="45" x="386" y="45" /><text fill="black" font-family="Montserrat" font-size="12" x="387" y="57">
</text><rect fill="white" height="12" opacity="0.3" rx="1" ry="1" stroke="black" width="45" x="482" y="60" /><text fill="black" font-family="Montserrat" font-size="12" x="483" y="72">3V3</text><rect fill="red" height="12" opacity="0.8" rx="1" ry="1" stroke="red" width="45" x="434" y="60" /><text fill="black" font-family="Montserrat" font-size="12" x="435" y="72">3.3V</text><rect fill="purple" height="12" opacity="0.2" rx="1" ry="1" stroke="purple" width="45" x="386" y="60" /><text fill="black" font-family="Montserrat" font-size="12" x="387" y="72">
</text><rect fill="white" height="12" opacity="0.3" rx="1" ry="1" stroke="black" width="45" x="482" y="75" /><text fill="black" font-family="Montserrat" font-size="12" x="483" y="87">EN</text><rect fill="purple" height="12" opacity="0.2" rx="1" ry="1" stroke="purple" width="45" x="434" y="75" /><text fill="black" font-family="Montserrat" font-size="12" x="435" y="87">Enable
</text><rect fill="white" height="12" opacity="0.3" rx="1" ry="1" stroke="black" width="45" x="482" y="90" /><text fill="black" font-family="Montserrat" font-size="12" x="483" y="102">SENSOR-VP</text><rect fill="yellow" height="12" opacity="0.7" rx="1" ry="1" stroke="yellow" width="45" x="434" y="90" /><text fill="black" font-family="Montserrat" font-size="12" x="435" y="102">36</text><rect fill="green" height="12" opacity="0.3" rx="1" ry="1" stroke="green" width="45" x="386" y="90" /><text fill="black" font-family="Montserrat" font-size="12" x="387" y="102">1:0</text><rect fill="purple" height="12" opacity="0.2" rx="1" ry="1" stroke="purple" width="45" x="338" y="90" /><text fill="black" font-family="Montserrat" font-size="12" x="339" y="102">ADC-H
</text><rect fill="white" height="12" opacity="0.3" rx="1" ry="1" stroke="black" width="45" x="482" y="105" /><text fill="black" font-family="Montserrat" font-size="12" x="483" y="117">SENSOR-VN</text><rect fill="yellow" height="12" opacity="0.7" rx="1" ry="1" stroke="yellow" width="45" x="434" y="105" /><text fill="black" font-family="Montserrat" font-size="12" x="435" y="117">39</text><rect fill="green" height="12" opacity="0.3" rx="1" ry="1" stroke="green" width="45" x="386" y="105" /><text fill="black" font-family="Montserrat" font-size="12" x="387" y="117">1:3</text><rect fill="purple" height="12" opacity="0.2" rx="1" ry="1" stroke="purple" width="45" x="338" y="105" /><text fill="black" font-family="Montserrat" font-size="12" x="339" y="117">ADC-H
</text><rect fill="white" height="12" opacity="0.3" rx="1" ry="1" stroke="black" width="45" x="482" y="120" /><text fill="black" font-family="Montserrat" font-size="12" x="483" y="132">IO34</text><rect fill="yellow" height="12" opacity="0.7" rx="1" ry="1" stroke="yellow" width="45" x="434" y="120" /><text fill="black" font-family="Montserrat" font-size="12" x="435" y="132">34</text><rect fill="green" height="12" opacity="0.3" rx="1" ry="1" stroke="green" width="45" x="386" y="120" /><text fill="black" font-family="Montserrat" font-size="12" x="387" y="132">1:6</text><rect fill="purple" height="12" opacity="0.2" rx="1" ry="1" stroke="purple" width="45" x="338" y="120" /><text fill="black" font-family="Montserrat" font-size="12" x="339" y="132">
</text><rect fill="white" height="12" opacity="0.3" rx="1" ry="1" stroke="black" width="45" x="482" y="135" /><text fill="black" font-family="Montserrat" font-size="12" x="483" y="147">IO35</text><rect fill="yellow" height="12" opacity="0.7" rx="1" ry="1" stroke="yellow" width="45" x="434" y="135" /><text fill="black" font-family="Montserrat" font-size="12" x="435" y="147">35</text><rect fill="green" height="12" opacity="0.3" rx="1" ry="1" stroke="green" width="45" x="386" y="135" /><text fill="black" font-family="Montserrat" font-size="12" x="387" y="147">1:7</text><rect fill="purple" height="12" opacity="0.2" rx="1" ry="1" stroke="purple" width="45" x="338" y="135" /><text fill="black" font-family="Montserrat" font-size="12" x="339" y="147">
</text><rect fill="white" height="12" opacity="0.3" rx="1" ry="1" stroke="black" width="45" x="482" y="150" /><text fill="black" font-family="Montserrat" font-size="12" x="483" y="162">IO32</text><rect fill="yellow" height="12" opacity="0.7" rx="1" ry="1" stroke="yellow" width="45" x="434" y="150" /><text fill="black" font-family="Montserrat" font-size="12" x="435" y="162">32</text><rect fill="green" height="12" opacity="0.3" rx="1" ry="1" stroke="green" width="45" x="386" y="150" /><text fill="black" font-family="Montserrat" font-size="12" x="387" y="162">1:4</text><rect fill="purple" height="12" opacity="0.4" rx="1" ry="1" stroke="purple" width="45" x="338" y="150" /><text fill="black" font-family="Montserrat" font-size="12" x="339" y="162">9</text><rect fill="purple" height="12" opacity="0.2" rx="1" ry="1" stroke="purple" width="45" x="290" y="150" /><text fill="black" font-family="Montserrat" font-size="12" x="291" y="162">XTAL-32K-P
</text><rect fill="white" height="12" opacity="0.3" rx="1" ry="1" stroke="black" width="45" x="482" y="165" /><text fill="black" font-family="Montserrat" font-size="12" x="483" y="177">IO33</text><rect fill="yellow" height="12" opacity="0.7" rx="1" ry="1" stroke="yellow" width="45" x="434" y="165" /><text fill="black" font-family="Montserrat" font-size="12" x="435" y="177">33</text><rect fill="green" height="12" opacity="0.3" rx="1" ry="1" stroke="green" width="45" x="386" y="165" /><text fill="black" font-family="Montserrat" font-size="12" x="387" y="177">1:5</text><rect fill="purple" height="12" opacity="0.4" rx="1" ry="1" stroke="purple" width="45" x="338" y="165" /><text fill="black" font-family="Montserrat" font-size="12" x="339" y="177">8</text><rect fill="purple" height="12" opacity="0.2" rx="1" ry="1" stroke="purple" width="45" x="290" y="165" /><text fill="black" font-family="Montserrat" font-size="12" x="291" y="177">XTAL-32K-N
</text><rect fill="white" height="12" opacity="0.3" rx="1" ry="1" stroke="black" width="45" x="482" y="180" /><text fill="black" font-family="Montserrat" font-size="12" x="483" y="192">IO25</text><rect fill="yellow" height="12" opacity="0.7" rx="1" ry="1" stroke="yellow" width="45" x="434" y="180" /><text fill="black" font-family="Montserrat" font-size="12" x="435" y="192">25</text><rect fill="green" height="12" opacity="0.3" rx="1" ry="1" stroke="green" width="45" x="386" y="180" /><text fill="black" font-family="Montserrat" font-size="12" x="387" y="192">2:8</text><rect fill="purple" height="12" opacity="0.2" rx="1" ry="1" stroke="purple" width="45" x="338" y="180" /><text fill="black" font-family="Montserrat" font-size="12" x="339" y="192">DAC1
</text><rect fill="white" height="12" opacity="0.3" rx="1" ry="1" stroke="black" width="45" x="482" y="195" /><text fill="black" font-family="Montserrat" font-size="12" x="483" y="207">IO26</text><rect fill="yellow" height="12" opacity="0.7" rx="1" ry="1" stroke="yellow" width="45" x="434" y="195" /><text fill="black" font-family="Montserrat" font-size="12" x="435" y="207">26</text><rect fill="green" height="12" opacity="0.3" rx="1" ry="1" stroke="green" width="45" x="386" y="195" /><text fill="black" font-family="Montserrat" font-size="12" x="387" y="207">2:9</text><rect fill="purple" height="12" opacity="0.2" rx="1" ry="1" stroke="purple" width="45" x="338" y="195" /><text fill="black" font-family="Montserrat" font-size="12" x="339" y="207">DAC2
</text><rect fill="white" height="12" opacity="0.3" rx="1" ry="1" stroke="black" width="45" x="482" y="210" /><text fill="black" font-family="Montserrat" font-size="12" x="483" y="222">IO27</text><rect fill="yellow" height="12" opacity="0.7" rx="1" ry="1" stroke="yellow" width="45" x="434" y="210" /><text fill="black" font-family="Montserrat" font-size="12" x="435" y="222">27</text><rect fill="green" height="12" opacity="0.3" rx="1" ry="1" stroke="green" width="45" x="386" y="210" /><text fill="black" font-family="Montserrat" font-size="12" x="387" y="222">2:7</text><rect fill="purple" height="12" opacity="0.4" rx="1" ry="1" stroke="purple" width="45" x="338" y="210" /><text fill="black" font-family="Montserrat" font-size="12" x="339" y="222">7</text><rect fill="purple" height="12" opacity="0.2" rx="1" ry="1" stroke="purple" width="45" x="290" y="210" /><text fill="black" font-family="Montserrat" font-size="12" x="291" y="222">
</text><rect fill="white" height="12" opacity="0.3" rx="1" ry="1" stroke="black" width="45" x="482" y="225" /><text fill="black" font-family="Montserrat" font-size="12" x="483" y="237">IO14</text><rect fill="yellow" height="12" opacity="0.7" rx="1" ry="1" stroke="yellow" width="45" x="434" y="225" /><text fill="black" font-family="Montserrat" font-size="12" x="435" y="237">14</text><rect fill="green" height="12" opacity="0.3" rx="1" ry="1" stroke="green" width="45" x="386" y="225" /><text fill="black" font-family="Montserrat" font-size="12" x="387" y="237">2:6</text><rect fill="purple" height="12" opacity="0.4" rx="1" ry="1" stroke="purple" width="45" x="338" y="225" /><text fill="black" font-family="Montserrat" font-size="12" x="339" y="237">6</text><rect fill="grey" height="12" opacity="0.3" rx="1" ry="1" stroke="grey" width="45" x="290" y="225" /><text fill="black" font-family="Montserrat" font-size="12" x="291" y="237">MTMS</text><rect fill="purple" height="12" opacity="0.2" rx="1" ry="1" stroke="purple" width="45" x="242" y="225" /><text fill="black" font-family="Montserrat" font-size="12" x="243" y="237">HSPICLK
</text><rect fill="white" height="12" opacity="0.3" rx="1" ry="1" stroke="black" width="45" x="482" y="240" /><text fill="black" font-family="Montserrat" font-size="12" x="483" y="252">IO12</text><rect fill="yellow" height="12" opacity="0.7" rx="1" ry="1" stroke="yellow" width="45" x="434" y="240" /><text fill="black" font-family="Montserrat" font-size="12" x="435" y="252">12</text><rect fill="green" height="12" opacity="0.3" rx="1" ry="1" stroke="green" width="45" x="386" y="240" /><text fill="black" font-family="Montserrat" font-size="12" x="387" y="252">2:5</text><rect fill="purple" height="12" opacity="0.4" rx="1" ry="1" stroke="purple" width="45" x="338" y="240" /><text fill="black" font-family="Montserrat" font-size="12" x="339" y="252">5</text><rect fill="grey" height="12" opacity="0.3" rx="1" ry="1" stroke="grey" width="45" x="290" y="240" /><text fill="black" font-family="Montserrat" font-size="12" x="291" y="252">MTDI</text><rect fill="purple" height="12" opacity="0.2" rx="1" ry="1" stroke="purple" width="45" x="242" y="240" /><text fill="black" font-family="Montserrat" font-size="12" x="243" y="252">HSPIQ
</text><rect fill="white" height="12" opacity="0.3" rx="1" ry="1" stroke="black" width="45" x="482" y="255" /><text fill="black" font-family="Montserrat" font-size="12" x="483" y="267">GND</text><rect fill="black" height="12" opacity="0.9" rx="1" ry="1" stroke="black" width="45" x="434" y="255" /><text fill="white" font-family="Montserrat" font-size="12" x="435" y="267">GND</text><rect fill="purple" height="12" opacity="0.2" rx="1" ry="1" stroke="purple" width="45" x="386" y="255" /><text fill="black" font-family="Montserrat" font-size="12" x="387" y="267">
</text><rect fill="white" height="12" opacity="0.3" rx="1" ry="1" stroke="black" width="45" x="482" y="270" /><text fill="black" font-family="Montserrat" font-size="12" x="483" y="282">IO13</text><rect fill="yellow" height="12" opacity="0.7" rx="1" ry="1" stroke="yellow" width="45" x="434" y="270" /><text fill="black" font-family="Montserrat" font-size="12" x="435" y="282">13</text><rect fill="green" height="12" opacity="0.3" rx="1" ry="1" stroke="green" width="45" x="386" y="270" /><text fill="black" font-family="Montserrat" font-size="12" x="387" y="282">2:4</text><rect fill="blue" height="12" opacity="0.4" rx="1" ry="1" stroke="blue" width="45" x="338" y="270" /><text fill="black" font-family="Montserrat" font-size="12" x="339" y="282">U0CTS</text><rect fill="purple" height="12" opacity="0.4" rx="1" ry="1" stroke="purple" width="45" x="290" y="270" /><text fill="black" font-family="Montserrat" font-size="12" x="291" y="282">4</text><rect fill="grey" height="12" opacity="0.3" rx="1" ry="1" stroke="grey" width="45" x="242" y="270" /><text fill="black" font-family="Montserrat" font-size="12" x="243" y="282">MTCK</text><rect fill="purple" height="12" opacity="0.2" rx="1" ry="1" stroke="purple" width="45" x="194" y="270" /><text fill="black" font-family="Montserrat" font-size="12" x="195" y="282">HSPID
</text><rect fill="white" height="12" opacity="0.3" rx="1" ry="1" stroke="black" width="45" x="482" y="285" /><text fill="black" font-family="Montserrat" font-size="12" x="483" y="297">SHD</text><rect fill="yellow" height="12" opacity="0.7" rx="1" ry="1" stroke="yellow" width="45" x="434" y="285" /><text fill="black" font-family="Montserrat" font-size="12" x="435" y="297">9</text><rect fill="blue" height="12" opacity="0.4" rx="1" ry="1" stroke="blue" width="45" x="386" y="285" /><text fill="black" font-family="Montserrat" font-size="12" x="387" y="297">U1RXD</text><rect fill="yellow" height="12" opacity="0.3" rx="1" ry="1" stroke="yellow" width="45" x="338" y="285" /><text fill="black" font-family="Montserrat" font-size="12" x="339" y="297">DATA2</text><rect fill="purple" height="12" opacity="0.2" rx="1" ry="1" stroke="purple" width="45" x="290" y="285" /><text fill="black" font-family="Montserrat" font-size="12" x="291" y="297">SPIHD
</text><rect fill="white" height="12" opacity="0.3" rx="1" ry="1" stroke="black" width="45" x="482" y="300" /><text fill="black" font-family="Montserrat" font-size="12" x="483" y="312">SWP</text><rect fill="yellow" height="12" opacity="0.7" rx="1" ry="1" stroke="yellow" width="45" x="434" y="300" /><text fill="black" font-family="Montserrat" font-size="12" x="435" y="312">10</text><rect fill="blue" height="12" opacity="0.4" rx="1" ry="1" stroke="blue" width="45" x="386" y="300" /><text fill="black" font-family="Montserrat" font-size="12" x="387" y="312">U1TXD</text><rect fill="yellow" height="12" opacity="0.3" rx="1" ry="1" stroke="yellow" width="45" x="338" y="300" /><text fill="black" font-family="Montserrat" font-size="12" x="339" y="312">DATA3</text><rect fill="purple" height="12" opacity="0.2" rx="1" ry="1" stroke="purple" width="45" x="290" y="300" /><text fill="black" font-family="Montserrat" font-size="12" x="291" y="312">SPIWP
</text><rect fill="white" height="12" opacity="0.3" rx="1" ry="1" stroke="black" width="45" x="482" y="315" /><text fill="black" font-family="Montserrat" font-size="12" x="483" y="327">SCS</text><rect fill="yellow" height="12" opacity="0.7" rx="1" ry="1" stroke="yellow" width="45" x="434" y="315" /><text fill="black" font-family="Montserrat" font-size="12" x="435" y="327">11</text><rect fill="blue" height="12" opacity="0.4" rx="1" ry="1" stroke="blue" width="45" x="386" y="315" /><text fill="black" font-family="Montserrat" font-size="12" x="387" y="327">U1RTS</text><rect fill="yellow" height="12" opacity="0.3" rx="1" ry="1" stroke="yellow" width="45" x="338" y="315" /><text fill="black" font-family="Montserrat" font-size="12" x="339" y="327">CMD</text><rect fill="purple" height="12" opacity="0.2" rx="1" ry="1" stroke="purple" width="45" x="290" y="315" /><text fill="black" font-family="Montserrat" font-size="12" x="291" y="327">SPICS0
</text><rect fill="white" height="12" opacity="0.3" rx="1" ry="1" stroke="black" width="45" x="482" y="330" /><text fill="black" font-family="Montserrat" font-size="12" x="483" y="342">SCK</text><rect fill="yellow" height="12" opacity="0.7" rx="1" ry="1" stroke="yellow" width="45" x="434" y="330" /><text fill="black" font-family="Montserrat" font-size="12" x="435" y="342">6</text><rect fill="blue" height="12" opacity="0.4" rx="1" ry="1" stroke="blue" width="45" x="386" y="330" /><text fill="black" font-family="Montserrat" font-size="12" x="387" y="342">U1CTS</text><rect fill="yellow" height="12" opacity="0.3" rx="1" ry="1" stroke="yellow" width="45" x="338" y="330" /><text fill="black" font-family="Montserrat" font-size="12" x="339" y="342">CLK</text><rect fill="purple" height="12" opacity="0.2" rx="1" ry="1" stroke="purple" width="45" x="290" y="330" /><text fill="black" font-family="Montserrat" font-size="12" x="291" y="342">SPICLK
</text><rect fill="white" height="12" opacity="0.3" rx="1" ry="1" stroke="black" width="45" x="482" y="345" /><text fill="black" font-family="Montserrat" font-size="12" x="483" y="357">SDO</text><rect fill="yellow" height="12" opacity="0.7" rx="1" ry="1" stroke="yellow" width="45" x="434" y="345" /><text fill="black" font-family="Montserrat" font-size="12" x="435" y="357">7</text><rect fill="yellow" height="12" opacity="0.3" rx="1" ry="1" stroke="yellow" width="45" x="386" y="345" /><text fill="black" font-family="Montserrat" font-size="12" x="387" y="357">DATA0</text><rect fill="purple" height="12" opacity="0.2" rx="1" ry="1" stroke="purple" width="45" x="338" y="345" /><text fill="black" font-family="Montserrat" font-size="12" x="339" y="357">SPIQ
</text><rect fill="white" height="12" opacity="0.3" rx="1" ry="1" stroke="black" width="45" x="482" y="360" /><text fill="black" font-family="Montserrat" font-size="12" x="483" y="372">SDI</text><rect fill="yellow" height="12" opacity="0.7" rx="1" ry="1" stroke="yellow" width="45" x="434" y="360" /><text fill="black" font-family="Montserrat" font-size="12" x="435" y="372">8</text><rect fill="yellow" height="12" opacity="0.3" rx="1" ry="1" stroke="yellow" width="45" x="386" y="360" /><text fill="black" font-family="Montserrat" font-size="12" x="387" y="372">DATA1</text><rect fill="purple" height="12" opacity="0.2" rx="1" ry="1" stroke="purple" width="45" x="338" y="360" /><text fill="black" font-family="Montserrat" font-size="12" x="339" y="372">SPID
</text><rect fill="white" height="12" opacity="0.3" rx="1" ry="1" stroke="black" width="45" x="482" y="375" /><text fill="black" font-family="Montserrat" font-size="12" x="483" y="387">IO15</text><rect fill="yellow" height="12" opacity="0.7" rx="1" ry="1" stroke="yellow" width="45" x="434" y="375" /><text fill="black" font-family="Montserrat" font-size="12" x="435" y="387">15</text><rect fill="green" height="12" opacity="0.3" rx="1" ry="1" stroke="green" width="45" x="386" y="375" /><text fill="black" font-family="Montserrat" font-size="12" x="387" y="387">2:3</text><rect fill="blue" height="12" opacity="0.4" rx="1" ry="1" stroke="blue" width="45" x="338" y="375" /><text fill="black" font-family="Montserrat" font-size="12" x="339" y="387">U0RTS</text><rect fill="purple" height="12" opacity="0.4" rx="1" ry="1" stroke="purple" width="45" x="290" y="375" /><text fill="black" font-family="Montserrat" font-size="12" x="291" y="387">3</text><rect fill="grey" height="12" opacity="0.3" rx="1" ry="1" stroke="grey" width="45" x="242" y="375" /><text fill="black" font-family="Montserrat" font-size="12" x="243" y="387">MTDO</text><rect fill="purple" height="12" opacity="0.2" rx="1" ry="1" stroke="purple" width="45" x="194" y="375" /><text fill="black" font-family="Montserrat" font-size="12" x="195" y="387">HSPICS0
</text><rect fill="white" height="12" opacity="0.3" rx="1" ry="1" stroke="black" width="45" x="482" y="390" /><text fill="black" font-family="Montserrat" font-size="12" x="483" y="402">IO2</text><rect fill="yellow" height="12" opacity="0.7" rx="1" ry="1" stroke="yellow" width="45" x="434" y="390" /><text fill="black" font-family="Montserrat" font-size="12" x="435" y="402">2</text><rect fill="green" height="12" opacity="0.3" rx="1" ry="1" stroke="green" width="45" x="386" y="390" /><text fill="black" font-family="Montserrat" font-size="12" x="387" y="402">2:3</text><rect fill="purple" height="12" opacity="0.4" rx="1" ry="1" stroke="purple" width="45" x="338" y="390" /><text fill="black" font-family="Montserrat" font-size="12" x="339" y="402">2</text><rect fill="purple" height="12" opacity="0.2" rx="1" ry="1" stroke="purple" width="45" x="290" y="390" /><text fill="black" font-family="Montserrat" font-size="12" x="291" y="402">HSPIWP
</text><rect fill="purple" height="12" opacity="0.2" rx="1" ry="1" stroke="purple" width="45" x="0" y="405" /><text fill="black" font-family="Montserrat" font-size="12" x="1" y="417">
</text><rect fill="white" height="12" opacity="0.3" rx="1" ry="1" stroke="black" width="45" x="0" y="420" /><text fill="black" font-family="Montserrat" font-size="12" x="1" y="432">IO0</text><rect fill="yellow" height="12" opacity="0.7" rx="1" ry="1" stroke="yellow" width="45" x="48" y="420" /><text fill="black" font-family="Montserrat" font-size="12" x="49" y="432">0</text><rect fill="green" height="12" opacity="0.3" rx="1" ry="1" stroke="green" width="45" x="96" y="420" /><text fill="black" font-family="Montserrat" font-size="12" x="97" y="432">2:1</text><rect fill="purple" height="12" opacity="0.4" rx="1" ry="1" stroke="purple" width="45" x="144" y="420" /><text fill="black" font-family="Montserrat" font-size="12" x="145" y="432">1</text><rect fill="purple" height="12" opacity="0.2" rx="1" ry="1" stroke="purple" width="45" x="192" y="420" /><text fill="black" font-family="Montserrat" font-size="12" x="193" y="432">CLK-OUT1
</text><rect fill="white" height="12" opacity="0.3" rx="1" ry="1" stroke="black" width="45" x="0" y="435" /><text fill="black" font-family="Montserrat" font-size="12" x="1" y="447">IO4</text><rect fill="yellow" height="12" opacity="0.7" rx="1" ry="1" stroke="yellow" width="45" x="48" y="435" /><text fill="black" font-family="Montserrat" font-size="12" x="49" y="447">4</text><rect fill="green" height="12" opacity="0.3" rx="1" ry="1" stroke="green" width="45" x="96" y="435" /><text fill="black" font-family="Montserrat" font-size="12" x="97" y="447">2:0</text><rect fill="purple" height="12" opacity="0.4" rx="1" ry="1" stroke="purple" width="45" x="144" y="435" /><text fill="black" font-family="Montserrat" font-size="12" x="145" y="447">0</text><rect fill="purple" height="12" opacity="0.2" rx="1" ry="1" stroke="purple" width="45" x="192" y="435" /><text fill="black" font-family="Montserrat" font-size="12" x="193" y="447">HSPIHD
</text><rect fill="white" height="12" opacity="0.3" rx="1" ry="1" stroke="black" width="45" x="0" y="450" /><text fill="black" font-family="Montserrat" font-size="12" x="1" y="462">IO16</text><rect fill="yellow" height="12" opacity="0.7" rx="1" ry="1" stroke="yellow" width="45" x="48" y="450" /><text fill="black" font-family="Montserrat" font-size="12" x="49" y="462">16</text><rect fill="purple" height="12" opacity="0.2" rx="1" ry="1" stroke="purple" width="45" x="96" y="450" /><text fill="black" font-family="Montserrat" font-size="12" x="97" y="462">HS1-DATA4
</text><rect fill="white" height="12" opacity="0.3" rx="1" ry="1" stroke="black" width="45" x="0" y="465" /><text fill="black" font-family="Montserrat" font-size="12" x="1" y="477">IO17</text><rect fill="yellow" height="12" opacity="0.7" rx="1" ry="1" stroke="yellow" width="45" x="48" y="465" /><text fill="black" font-family="Montserrat" font-size="12" x="49" y="477">17</text><rect fill="purple" height="12" opacity="0.2" rx="1" ry="1" stroke="purple" width="45" x="96" y="465" /><text fill="black" font-family="Montserrat" font-size="12" x="97" y="477">HS1-DATA5
</text><rect fill="white" height="12" opacity="0.3" rx="1" ry="1" stroke="black" width="45" x="0" y="480" /><text fill="black" font-family="Montserrat" font-size="12" x="1" y="492">IO5</text><rect fill="yellow" height="12" opacity="0.7" rx="1" ry="1" stroke="yellow" width="45" x="48" y="480" /><text fill="black" font-family="Montserrat" font-size="12" x="49" y="492">5</text><rect fill="blue" height="12" opacity="0.4" rx="1" ry="1" stroke="blue" width="45" x="96" y="480" /><text fill="black" font-family="Montserrat" font-size="12" x="97" y="492">VSPICS0</text><rect fill="purple" height="12" opacity="0.2" rx="1" ry="1" stroke="purple" width="45" x="144" y="480" /><text fill="black" font-family="Montserrat" font-size="12" x="145" y="492">HS1-DATA6
</text><rect fill="white" height="12" opacity="0.3" rx="1" ry="1" stroke="black" width="45" x="0" y="495" /><text fill="black" font-family="Montserrat" font-size="12" x="1" y="507">IO18</text><rect fill="yellow" height="12" opacity="0.7" rx="1" ry="1" stroke="yellow" width="45" x="48" y="495" /><text fill="black" font-family="Montserrat" font-size="12" x="49" y="507">18</text><rect fill="blue" height="12" opacity="0.4" rx="1" ry="1" stroke="blue" width="45" x="96" y="495" /><text fill="black" font-family="Montserrat" font-size="12" x="97" y="507">VSPICLK</text><rect fill="purple" height="12" opacity="0.2" rx="1" ry="1" stroke="purple" width="45" x="144" y="495" /><text fill="black" font-family="Montserrat" font-size="12" x="145" y="507">HS1-DATA7
</text><rect fill="white" height="12" opacity="0.3" rx="1" ry="1" stroke="black" width="45" x="0" y="510" /><text fill="black" font-family="Montserrat" font-size="12" x="1" y="522">IO19</text><rect fill="yellow" height="12" opacity="0.7" rx="1" ry="1" stroke="yellow" width="45" x="48" y="510" /><text fill="black" font-family="Montserrat" font-size="12" x="49" y="522">19</text><rect fill="blue" height="12" opacity="0.4" rx="1" ry="1" stroke="blue" width="45" x="96" y="510" /><text fill="black" font-family="Montserrat" font-size="12" x="97" y="522">VSPIQ</text><rect fill="yellow" height="12" opacity="0.3" rx="1" ry="1" stroke="yellow" width="45" x="144" y="510" /><text fill="black" font-family="Montserrat" font-size="12" x="145" y="522">HS2-DATA2</text><rect fill="purple" height="12" opacity="0.2" rx="1" ry="1" stroke="purple" width="45" x="192" y="510" /><text fill="black" font-family="Montserrat" font-size="12" x="193" y="522">
</text><rect fill="white" height="12" opacity="0.3" rx="1" ry="1" stroke="black" width="45" x="0" y="525" /><text fill="black" font-family="Montserrat" font-size="12" x="1" y="537">IO20</text><rect fill="yellow" height="12" opacity="0.7" rx="1" ry="1" stroke="yellow" width="45" x="48" y="525" /><text fill="black" font-family="Montserrat" font-size="12" x="49" y="537">20</text><rect fill="blue" height="12" opacity="0.4" rx="1" ry="1" stroke="blue" width="45" x="96" y="525" /><text fill="black" font-family="Montserrat" font-size="12" x="97" y="537">VSPID</text><rect fill="yellow" height="12" opacity="0.3" rx="1" ry="1" stroke="yellow" width="45" x="144" y="525" /><text fill="black" font-family="Montserrat" font-size="12" x="145" y="537">HS2-DATA3</text><rect fill="purple" height="12" opacity="0.2" rx="1" ry="1" stroke="purple" width="45" x="192" y="525" /><text fill="black" font-family="Montserrat" font-size="12" x="193" y="537">
</text><rect fill="white" height="12" opacity="0.3" rx="1" ry="1" stroke="black" width="45" x="0" y="540" /><text fill="black" font-family="Montserrat" font-size="12" x="1" y="552">IO21</text><rect fill="yellow" height="12" opacity="0.7" rx="1" ry="1" stroke="yellow" width="45" x="48" y="540" /><text fill="black" font-family="Montserrat" font-size="12" x="49" y="552">21</text><rect fill="blue" height="12" opacity="0.4" rx="1" ry="1" stroke="blue" width="45" x="96" y="540" /><text fill="black" font-family="Montserrat" font-size="12" x="97" y="552">VSPIHD</text><rect fill="yellow" height="12" opacity="0.3" rx="1" ry="1" stroke="yellow" width="45" x="144" y="540" /><text fill="black" font-family="Montserrat" font-size="12" x="145" y="552">HS2-CMD</text><rect fill="purple" height="12" opacity="0.2" rx="1" ry="1" stroke="purple" width="45" x="192" y="540" /><text fill="black" font-family="Montserrat" font-size="12" x="193" y="552">
</text><rect fill="white" height="12" opacity="0.3" rx="1" ry="1" stroke="black" width="45" x="0" y="555" /><text fill="black" font-family="Montserrat" font-size="12" x="1" y="567">RXD</text><rect fill="yellow" height="12" opacity="0.7" rx="1" ry="1" stroke="yellow" width="45" x="48" y="555" /><text fill="black" font-family="Montserrat" font-size="12" x="49" y="567">3</text><rect fill="blue" height="12" opacity="0.4" rx="1" ry="1" stroke="blue" width="45" x="96" y="555" /><text fill="black" font-family="Montserrat" font-size="12" x="97" y="567">U0RXD</text><rect fill="yellow" height="12" opacity="0.3" rx="1" ry="1" stroke="yellow" width="45" x="144" y="555" /><text fill="black" font-family="Montserrat" font-size="12" x="145" y="567">HS2-DATA0</text><rect fill="purple" height="12" opacity="0.2" rx="1" ry="1" stroke="purple" width="45" x="192" y="555" /><text fill="black" font-family="Montserrat" font-size="12" x="193" y="567">CLK-OUT2
</text><rect fill="white" height="12" opacity="0.3" rx="1" ry="1" stroke="black" width="45" x="0" y="570" /><text fill="black" font-family="Montserrat" font-size="12" x="1" y="582">TXD</text><rect fill="yellow" height="12" opacity="0.7" rx="1" ry="1" stroke="yellow" width="45" x="48" y="570" /><text fill="black" font-family="Montserrat" font-size="12" x="49" y="582">1</text><rect fill="blue" height="12" opacity="0.4" rx="1" ry="1" stroke="blue" width="45" x="96" y="570" /><text fill="black" font-family="Montserrat" font-size="12" x="97" y="582">U0TXD</text><rect fill="yellow" height="12" opacity="0.3" rx="1" ry="1" stroke="yellow" width="45" x="144" y="570" /><text fill="black" font-family="Montserrat" font-size="12" x="145" y="582">HS2-DATA1</text><rect fill="purple" height="12" opacity="0.2" rx="1" ry="1" stroke="purple" width="45" x="192" y="570" /><text fill="black" font-family="Montserrat" font-size="12" x="193" y="582">CLK-OUT3
</text><rect fill="white" height="12" opacity="0.3" rx="1" ry="1" stroke="black" width="45" x="0" y="585" /><text fill="black" font-family="Montserrat" font-size="12" x="1" y="597">IO22</text><rect fill="yellow" height="12" opacity="0.7" rx="1" ry="1" stroke="yellow" width="45" x="48" y="585" /><text fill="black" font-family="Montserrat" font-size="12" x="49" y="597">22</text><rect fill="blue" height="12" opacity="0.4" rx="1" ry="1" stroke="blue" width="45" x="96" y="585" /><text fill="black" font-family="Montserrat" font-size="12" x="97" y="597">VSPIWP</text><rect fill="yellow" height="12" opacity="0.3" rx="1" ry="1" stroke="yellow" width="45" x="144" y="585" /><text fill="black" font-family="Montserrat" font-size="12" x="145" y="597">HS2-CLK</text><rect fill="purple" height="12" opacity="0.2" rx="1" ry="1" stroke="purple" width="45" x="192" y="585" /><text fill="black" font-family="Montserrat" font-size="12" x="193" y="597">
</text><rect fill="white" height="12" opacity="0.3" rx="1" ry="1" stroke="black" width="45" x="0" y="600" /><text fill="black" font-family="Montserrat" font-size="12" x="1" y="612">IO23</text><rect fill="yellow" height="12" opacity="0.7" rx="1" ry="1" stroke="yellow" width="45" x="48" y="600" /><text fill="black" font-family="Montserrat" font-size="12" x="49" y="612">23</text><rect fill="purple" height="12" opacity="0.2" rx="1" ry="1" stroke="purple" width="45" x="96" y="600" /><text fill="black" font-family="Montserrat" font-size="12" x="97" y="612">
</text><rect fill="white" height="12" opacity="0.3" rx="1" ry="1" stroke="black" width="45" x="0" y="615" /><text fill="black" font-family="Montserrat" font-size="12" x="1" y="627">GND</text><rect fill="black" height="12" opacity="0.9" rx="1" ry="1" stroke="black" width="45" x="48" y="615" /><text fill="white" font-family="Montserrat" font-size="12" x="49" y="627">GND</text><rect fill="purple" height="12" opacity="0.2" rx="1" ry="1" stroke="purple" width="45" x="96" y="615" /><text fill="black" font-family="Montserrat" font-size="12" x="97" y="627">
</text><text fill="black" font-family="Montserrat" font-size="12" x="0" y="630">
</text><text fill="black" font-family="Montserrat" font-size="12" x="0" y="662">Motor PWM: Any GPIO - Four channels of 16-bit timers to generate PWM waveforms.</text><text fill="black" font-family="Montserrat" font-size="12" x="0" y="679">
</text><text fill="black" font-family="Montserrat" font-size="12" x="0" y="711">LED PWM: Any GPIO - 8 independent channels running at 80MHz clock</text><text fill="black" font-family="Montserrat" font-size="12" x="0" y="728">
</text></svg>